<svg width="244" height="244" viewBox="0 0 244 244" fill="none" xmlns="http://www.w3.org/2000/svg">
<rect width="244" height="244" rx="40" fill="#1F1F1F"/>
<rect x="58" y="36" width="128" height="173" rx="16" stroke="url(#paint0_linear_248_38)" stroke-width="8"/>
<rect x="81" y="110" width="20" height="20" rx="5" fill="#363636"/>
<rect x="81" y="61" width="82" height="39" rx="5" fill="#363636"/>
<rect x="81" y="137" width="20" height="20" rx="5" fill="#363636"/>
<rect x="112" y="137" width="20" height="20" rx="5" fill="#363636"/>
<rect x="81" y="164" width="51" height="20" rx="5" fill="#363636"/>
<rect x="143" y="110" width="20" height="20" rx="5" fill="url(#paint1_linear_248_38)"/>
<rect x="143" y="137" width="20" height="20" rx="5" fill="url(#paint2_linear_248_38)"/>
<rect x="143" y="164" width="20" height="20" rx="5" fill="url(#paint3_linear_248_38)"/>
<rect x="112" y="110" width="20" height="20" rx="5" fill="#363636"/>
<defs>
<linearGradient id="paint0_linear_248_38" x1="1" y1="4.00001" x2="228.5" y2="243.5" gradientUnits="userSpaceOnUse">
<stop stop-color="#6171D9"/>
<stop offset="1" stop-color="#6171D9" stop-opacity="0"/>
</linearGradient>
<linearGradient id="paint1_linear_248_38" x1="133" y1="92.5" x2="163" y2="138" gradientUnits="userSpaceOnUse">
<stop stop-color="#6171D9"/>
<stop offset="1" stop-color="#6171D9" stop-opacity="0"/>
</linearGradient>
<linearGradient id="paint2_linear_248_38" x1="133" y1="119.5" x2="163" y2="165" gradientUnits="userSpaceOnUse">
<stop stop-color="#6171D9"/>
<stop offset="1" stop-color="#6171D9" stop-opacity="0"/>
</linearGradient>
<linearGradient id="paint3_linear_248_38" x1="133" y1="146.5" x2="163" y2="192" gradientUnits="userSpaceOnUse">
<stop stop-color="#6171D9"/>
<stop offset="1" stop-color="#6171D9" stop-opacity="0"/>
</linearGradient>
</defs>
</svg>
