<svg width="35" height="35" viewBox="0 0 35 35" fill="none" xmlns="http://www.w3.org/2000/svg">
<path d="M17.4997 10.2083C15.5658 10.2083 13.7111 10.9765 12.3437 12.3439C10.9762 13.7114 10.208 15.566 10.208 17.4999C10.208 19.4338 10.9762 21.2885 12.3437 22.6559C13.7111 24.0234 15.5658 24.7916 17.4997 24.7916C19.4335 24.7916 21.2882 24.0234 22.6557 22.6559C24.0231 21.2885 24.7913 19.4338 24.7913 17.4999C24.7913 15.566 24.0231 13.7114 22.6557 12.3439C21.2882 10.9765 19.4335 10.2083 17.4997 10.2083Z" fill="#E3EDF7"/>
<path fill-rule="evenodd" clip-rule="evenodd" d="M17.4997 1.45825C17.8864 1.45825 18.2574 1.6119 18.5309 1.88539C18.8044 2.15888 18.958 2.52981 18.958 2.91659V4.37492C18.958 4.76169 18.8044 5.13263 18.5309 5.40612C18.2574 5.67961 17.8864 5.83325 17.4997 5.83325C17.1129 5.83325 16.742 5.67961 16.4685 5.40612C16.195 5.13263 16.0413 4.76169 16.0413 4.37492V2.91659C16.0413 2.52981 16.195 2.15888 16.4685 1.88539C16.742 1.6119 17.1129 1.45825 17.4997 1.45825ZM4.80197 4.80221C5.07544 4.52881 5.44631 4.37523 5.83301 4.37523C6.21971 4.37523 6.59057 4.52881 6.86405 4.80221L9.05155 6.98971C9.3172 7.26476 9.46419 7.63313 9.46087 8.0155C9.45754 8.39787 9.30417 8.76364 9.03378 9.03403C8.7634 9.30442 8.39763 9.45779 8.01526 9.46111C7.63289 9.46443 7.26451 9.31744 6.98947 9.05179L4.80197 6.86429C4.52857 6.59082 4.37499 6.21995 4.37499 5.83325C4.37499 5.44655 4.52857 5.07569 4.80197 4.80221ZM30.1974 4.80221C30.4708 5.07569 30.6244 5.44655 30.6244 5.83325C30.6244 6.21995 30.4708 6.59082 30.1974 6.86429L28.0099 9.05179C27.8754 9.19108 27.7144 9.30218 27.5365 9.37861C27.3586 9.45504 27.1672 9.49527 26.9736 9.49695C26.78 9.49863 26.5879 9.46173 26.4087 9.38841C26.2295 9.31508 26.0666 9.2068 25.9297 9.06987C25.7928 8.93294 25.6845 8.77012 25.6112 8.59089C25.5379 8.41167 25.501 8.21964 25.5026 8.026C25.5043 7.83236 25.5446 7.641 25.621 7.46308C25.6974 7.28516 25.8085 7.12424 25.9478 6.98971L28.1353 4.80221C28.4088 4.52881 28.7796 4.37523 29.1663 4.37523C29.553 4.37523 29.9239 4.52881 30.1974 4.80221ZM1.45801 17.4999C1.45801 17.1131 1.61165 16.7422 1.88514 16.4687C2.15863 16.1952 2.52957 16.0416 2.91634 16.0416H4.37467C4.76145 16.0416 5.13238 16.1952 5.40587 16.4687C5.67936 16.7422 5.83301 17.1131 5.83301 17.4999C5.83301 17.8867 5.67936 18.2576 5.40587 18.5311C5.13238 18.8046 4.76145 18.9583 4.37467 18.9583H2.91634C2.52957 18.9583 2.15863 18.8046 1.88514 18.5311C1.61165 18.2576 1.45801 17.8867 1.45801 17.4999ZM29.1663 17.4999C29.1663 17.1131 29.32 16.7422 29.5935 16.4687C29.867 16.1952 30.2379 16.0416 30.6247 16.0416H32.083C32.4698 16.0416 32.8407 16.1952 33.1142 16.4687C33.3877 16.7422 33.5413 17.1131 33.5413 17.4999C33.5413 17.8867 33.3877 18.2576 33.1142 18.5311C32.8407 18.8046 32.4698 18.9583 32.083 18.9583H30.6247C30.2379 18.9583 29.867 18.8046 29.5935 18.5311C29.32 18.2576 29.1663 17.8867 29.1663 17.4999ZM9.05155 25.948C9.32494 26.2215 9.47853 26.5924 9.47853 26.9791C9.47853 27.3658 9.32494 27.7366 9.05155 28.0101L6.86405 30.1976C6.589 30.4633 6.22063 30.6103 5.83826 30.6069C5.45589 30.6036 5.09012 30.4502 4.81973 30.1799C4.54934 29.9095 4.39597 29.5437 4.39265 29.1613C4.38933 28.779 4.53632 28.4106 4.80197 28.1355L6.98947 25.948C7.26294 25.6746 7.63381 25.5211 8.02051 25.5211C8.40721 25.5211 8.77807 25.6746 9.05155 25.948ZM25.9478 25.948C26.2213 25.6746 26.5921 25.5211 26.9788 25.5211C27.3655 25.5211 27.7364 25.6746 28.0099 25.948L30.1974 28.1355C30.463 28.4106 30.61 28.779 30.6067 29.1613C30.6034 29.5437 30.45 29.9095 30.1796 30.1799C29.9092 30.4502 29.5435 30.6036 29.1611 30.6069C28.7787 30.6103 28.4103 30.4633 28.1353 30.1976L25.9478 28.0101C25.6744 27.7366 25.5208 27.3658 25.5208 26.9791C25.5208 26.5924 25.6744 26.2215 25.9478 25.948ZM17.4997 29.1666C17.8864 29.1666 18.2574 29.3202 18.5309 29.5937C18.8044 29.8672 18.958 30.2381 18.958 30.6249V32.0833C18.958 32.47 18.8044 32.841 18.5309 33.1144C18.2574 33.3879 17.8864 33.5416 17.4997 33.5416C17.1129 33.5416 16.742 33.3879 16.4685 33.1144C16.195 32.841 16.0413 32.47 16.0413 32.0833V30.6249C16.0413 30.2381 16.195 29.8672 16.4685 29.5937C16.742 29.3202 17.1129 29.1666 17.4997 29.1666Z" fill="#E3EDF7"/>
</svg>
